<svg width="193" height="54" viewBox="0 0 193 54" fill="none" xmlns="http://www.w3.org/2000/svg">
<path d="M30.3298 34.164C39.5038 26.018 46.6118 15.316 42.4438 10.622C41.1218 9.13398 39.2758 8.44398 37.2938 8.65598C35.6298 8.83798 33.9198 9.65998 32.1958 11.04C29.4858 9.63598 26.4608 8.95058 23.4103 9.04933C20.3597 9.14807 17.3854 10.0277 14.7718 11.604C12.7401 12.8069 10.9674 14.4014 9.55666 16.2948C8.14594 18.1883 7.12526 20.343 6.55384 22.634C5.66323 26.163 5.87684 29.8802 7.16584 33.284C5.03584 35.69 3.05784 40.638 5.51984 43.41C6.55384 44.572 8.03384 45.092 9.81384 45.092C15.2278 45.092 23.4298 40.294 30.3298 34.164ZM37.7278 12.63C38.4438 12.562 38.9918 12.758 39.4498 13.276C39.9118 13.798 39.7878 15.168 38.9458 17.134C38.0413 15.7574 36.9533 14.5106 35.7118 13.428C36.5738 12.904 37.2638 12.682 37.7278 12.63ZM9.26584 37.236C10.1552 38.5258 11.2094 39.6937 12.4018 40.71C10.3518 41.316 8.97384 41.276 8.51184 40.752C8.07784 40.266 8.51584 38.614 9.26584 37.236ZM41.8858 25.498C39.4558 29.092 36.0738 32.84 32.3298 36.164C28.4618 39.602 24.1978 42.58 20.2298 44.568C21.4611 44.839 22.7172 44.9811 23.9778 44.992C27.2305 44.9885 30.4212 44.1023 33.2098 42.428C36.1068 40.7129 38.459 38.2128 39.9944 35.2167C41.5297 32.2207 42.1855 28.8512 41.8858 25.498Z" fill="#4E63D4"/>
<path d="M77.964 35.536H68.532L67.02 40H60.576L69.72 14.728H76.848L85.992 40H79.476L77.964 35.536ZM76.38 30.784L73.248 21.532L70.152 30.784H76.38ZM91.871 17.824C90.791 17.824 89.903 17.512 89.207 16.888C88.535 16.24 88.199 15.448 88.199 14.512C88.199 13.552 88.535 12.76 89.207 12.136C89.903 11.488 90.791 11.164 91.871 11.164C92.927 11.164 93.791 11.488 94.463 12.136C95.159 12.76 95.507 13.552 95.507 14.512C95.507 15.448 95.159 16.24 94.463 16.888C93.791 17.512 92.927 17.824 91.871 17.824ZM94.931 19.912V40H88.775V19.912H94.931ZM105.548 23.26C106.268 22.156 107.168 21.292 108.248 20.668C109.328 20.02 110.528 19.696 111.848 19.696V26.212H110.156C108.62 26.212 107.468 26.548 106.7 27.22C105.932 27.868 105.548 29.02 105.548 30.676V40H99.3922V19.912H105.548V23.26ZM123.827 34.24L128.183 19.912H134.735L127.607 40H120.011L112.883 19.912H119.471L123.827 34.24ZM140.422 17.824C139.342 17.824 138.454 17.512 137.758 16.888C137.086 16.24 136.75 15.448 136.75 14.512C136.75 13.552 137.086 12.76 137.758 12.136C138.454 11.488 139.342 11.164 140.422 11.164C141.478 11.164 142.342 11.488 143.014 12.136C143.71 12.76 144.058 13.552 144.058 14.512C144.058 15.448 143.71 16.24 143.014 16.888C142.342 17.512 141.478 17.824 140.422 17.824ZM143.482 19.912V40H137.326V19.912H143.482ZM157.087 40.288C155.119 40.288 153.343 39.868 151.759 39.028C150.199 38.188 148.963 36.988 148.051 35.428C147.163 33.868 146.719 32.044 146.719 29.956C146.719 27.892 147.175 26.08 148.087 24.52C148.999 22.936 150.247 21.724 151.831 20.884C153.415 20.044 155.191 19.624 157.159 19.624C159.127 19.624 160.903 20.044 162.487 20.884C164.071 21.724 165.319 22.936 166.231 24.52C167.143 26.08 167.599 27.892 167.599 29.956C167.599 32.02 167.131 33.844 166.195 35.428C165.283 36.988 164.023 38.188 162.415 39.028C160.831 39.868 159.055 40.288 157.087 40.288ZM157.087 34.96C158.263 34.96 159.259 34.528 160.075 33.664C160.915 32.8 161.335 31.564 161.335 29.956C161.335 28.348 160.927 27.112 160.111 26.248C159.319 25.384 158.335 24.952 157.159 24.952C155.959 24.952 154.963 25.384 154.171 26.248C153.379 27.088 152.983 28.324 152.983 29.956C152.983 31.564 153.367 32.8 154.135 33.664C154.927 34.528 155.911 34.96 157.087 34.96ZM183.105 19.696C185.457 19.696 187.329 20.464 188.721 22C190.137 23.512 190.845 25.6 190.845 28.264V40H184.725V29.092C184.725 27.748 184.377 26.704 183.681 25.96C182.985 25.216 182.049 24.844 180.873 24.844C179.697 24.844 178.761 25.216 178.065 25.96C177.369 26.704 177.021 27.748 177.021 29.092V40H170.865V19.912H177.021V22.576C177.645 21.688 178.485 20.992 179.541 20.488C180.597 19.96 181.785 19.696 183.105 19.696Z" fill="#292929"/>
</svg>
