<svg width="52" height="52" viewBox="0 0 52 52" fill="none" xmlns="http://www.w3.org/2000/svg">
<path d="M44.8717 41.795L37.505 34.45C39.8818 31.422 41.1715 27.6828 41.1667 23.8333C41.1667 20.4051 40.1501 17.0539 38.2455 14.2035C36.3409 11.353 33.6338 9.13135 30.4665 7.81943C27.2993 6.50751 23.8141 6.16425 20.4518 6.83306C17.0894 7.50187 14.0009 9.15271 11.5768 11.5768C9.15271 14.0009 7.50187 17.0894 6.83306 20.4518C6.16425 23.8141 6.50751 27.2993 7.81943 30.4665C9.13135 33.6338 11.353 36.3409 14.2035 38.2455C17.0539 40.1501 20.4051 41.1667 23.8333 41.1667C27.6828 41.1715 31.422 39.8818 34.45 37.505L41.795 44.8717C41.9964 45.0748 42.2361 45.2359 42.5001 45.3459C42.7641 45.4559 43.0473 45.5126 43.3333 45.5126C43.6194 45.5126 43.9026 45.4559 44.1666 45.3459C44.4306 45.2359 44.6703 45.0748 44.8717 44.8717C45.0748 44.6703 45.2359 44.4306 45.3459 44.1666C45.4559 43.9026 45.5126 43.6194 45.5126 43.3333C45.5126 43.0473 45.4559 42.7641 45.3459 42.5001C45.2359 42.2361 45.0748 41.9964 44.8717 41.795ZM10.8333 23.8333C10.8333 21.2622 11.5958 18.7488 13.0242 16.6109C14.4527 14.4731 16.483 12.8068 18.8585 11.8229C21.2339 10.839 23.8478 10.5815 26.3695 11.0831C28.8913 11.5847 31.2076 12.8229 33.0257 14.641C34.8438 16.459 36.0819 18.7754 36.5836 21.2972C37.0852 23.8189 36.8277 26.4328 35.8438 28.8082C34.8598 31.1837 33.1936 33.214 31.0558 34.6424C28.9179 36.0709 26.4045 36.8333 23.8333 36.8333C20.3855 36.8333 17.0789 35.4637 14.641 33.0257C12.203 30.5878 10.8333 27.2812 10.8333 23.8333Z" fill="white"/>
</svg>
